<svg width="181" height="181" viewBox="0 0 181 181" fill="#1BA784" xmlns="http://www.w3.org/2000/svg">
<path d="M143.292 22.625H111.767C108.6 13.8766 100.304 7.54163 90.5 7.54163C80.6958 7.54163 72.4 13.8766 69.2325 22.625H37.7083C29.4125 22.625 22.625 29.4125 22.625 37.7083V143.292C22.625 151.587 29.4125 158.375 37.7083 158.375H143.292C151.587 158.375 158.375 151.587 158.375 143.292V37.7083C158.375 29.4125 151.587 22.625 143.292 22.625ZM90.5 22.625C94.6479 22.625 98.0417 26.0187 98.0417 30.1666C98.0417 34.3145 94.6479 37.7083 90.5 37.7083C86.3521 37.7083 82.9583 34.3145 82.9583 30.1666C82.9583 26.0187 86.3521 22.625 90.5 22.625ZM75.4167 128.208L45.25 98.0416L55.8837 87.4079L75.4167 106.865L125.116 57.1658L135.75 67.875L75.4167 128.208Z" fill="#1BA784"/>
</svg>
