<svg width="182" height="181" viewBox="0 0 182 181" fill="#2F80ED" xmlns="http://www.w3.org/2000/svg">
<path d="M121.067 82.9583C133.586 82.9583 143.616 72.8524 143.616 60.3333C143.616 47.8141 133.586 37.7083 121.067 37.7083C108.548 37.7083 98.4417 47.8141 98.4417 60.3333C98.4417 72.8524 108.548 82.9583 121.067 82.9583ZM60.7334 82.9583C73.2526 82.9583 83.283 72.8524 83.283 60.3333C83.283 47.8141 73.2526 37.7083 60.7334 37.7083C48.2142 37.7083 38.1084 47.8141 38.1084 60.3333C38.1084 72.8524 48.2142 82.9583 60.7334 82.9583ZM60.7334 98.0416C43.1613 98.0416 7.94168 106.865 7.94168 124.437V143.292H113.525V124.437C113.525 106.865 78.3055 98.0416 60.7334 98.0416ZM121.067 98.0416C118.88 98.0416 116.391 98.1925 113.751 98.4187C122.5 104.754 128.608 113.276 128.608 124.437V143.292H173.858V124.437C173.858 106.865 138.639 98.0416 121.067 98.0416Z" fill="#2F80ED" fill-opacity="0.54"/>
</svg>
