<svg width="63" height="63" viewBox="0 0 63 63" fill="none" xmlns="http://www.w3.org/2000/svg">
<path d="M49.4 7.8001H38.532C37.44 4.7841 34.58 2.6001 31.2 2.6001C27.82 2.6001 24.96 4.7841 23.868 7.8001H13C10.14 7.8001 7.8 10.1401 7.8 13.0001V49.4001C7.8 52.2601 10.14 54.6001 13 54.6001H49.4C52.26 54.6001 54.6 52.2601 54.6 49.4001V13.0001C54.6 10.1401 52.26 7.8001 49.4 7.8001ZM31.2 7.8001C32.63 7.8001 33.8 8.9701 33.8 10.4001C33.8 11.8301 32.63 13.0001 31.2 13.0001C29.77 13.0001 28.6 11.8301 28.6 10.4001C28.6 8.9701 29.77 7.8001 31.2 7.8001ZM36.4 44.2001H18.2V39.0001H36.4V44.2001ZM44.2 33.8001H18.2V28.6001H44.2V33.8001ZM44.2 23.4001H18.2V18.2001H44.2V23.4001Z" fill="#2F80ED"/>
</svg>
