<svg width="63" height="63" viewBox="0 0 63 63" fill="none" xmlns="http://www.w3.org/2000/svg">
<path d="M49.6 7.79998H38.732C37.64 4.78398 34.78 2.59998 31.4 2.59998C28.02 2.59998 25.16 4.78398 24.068 7.79998H13.2C10.34 7.79998 7.99997 10.14 7.99997 13V49.4C7.99997 52.26 10.34 54.6 13.2 54.6H49.6C52.46 54.6 54.8 52.26 54.8 49.4V13C54.8 10.14 52.46 7.79998 49.6 7.79998ZM31.4 7.79998C32.83 7.79998 34 8.96998 34 10.4C34 11.83 32.83 13 31.4 13C29.97 13 28.8 11.83 28.8 10.4C28.8 8.96998 29.97 7.79998 31.4 7.79998ZM26.2 44.2L15.8 33.8L19.466 30.134L26.2 36.842L43.334 19.708L47 23.4L26.2 44.2Z" fill="black" fill-opacity="0.54"/>
</svg>
