<svg width="63" height="63" viewBox="0 0 63 63" fill="none" xmlns="http://www.w3.org/2000/svg">
<path d="M49.6 8.4002H38.732C37.64 5.3842 34.78 3.2002 31.4 3.2002C28.02 3.2002 25.16 5.3842 24.068 8.4002H13.2C10.34 8.4002 7.99997 10.7402 7.99997 13.6002V50.0002C7.99997 52.8602 10.34 55.2002 13.2 55.2002H49.6C52.46 55.2002 54.8 52.8602 54.8 50.0002V13.6002C54.8 10.7402 52.46 8.4002 49.6 8.4002ZM31.4 8.4002C32.83 8.4002 34 9.5702 34 11.0002C34 12.4302 32.83 13.6002 31.4 13.6002C29.97 13.6002 28.8 12.4302 28.8 11.0002C28.8 9.5702 29.97 8.4002 31.4 8.4002ZM36.6 44.8002H18.4V39.6002H36.6V44.8002ZM44.4 34.4002H18.4V29.2002H44.4V34.4002ZM44.4 24.0002H18.4V18.8002H44.4V24.0002Z" fill="black" fill-opacity="0.54"/>
</svg>
