<svg width="74" height="74" viewBox="0 0 74 74" fill="none" xmlns="http://www.w3.org/2000/svg">
<path d="M34.088 52.816C23.6048 52.816 15.16 44.3712 15.16 33.888C15.16 23.4048 23.6048 14.96 34.088 14.96C44.5712 14.96 53.016 23.4048 53.016 33.888C53.016 44.3712 44.5712 52.816 34.088 52.816ZM34.088 17.872C25.2064 17.872 18.072 25.0064 18.072 33.888C18.072 42.7696 25.2064 49.904 34.088 49.904C42.9696 49.904 50.104 42.7696 50.104 33.888C50.104 25.0064 42.9696 17.872 34.088 17.872Z" fill="#CFC5C5"/>
<path d="M48.185 45.9248L61.2598 58.9997L59.2011 61.0585L46.1262 47.9836L48.185 45.9248Z" fill="#CFC5C5"/>
</svg>
