<svg width="63" height="63" viewBox="0 0 63 63" fill="none" xmlns="http://www.w3.org/2000/svg">
<path d="M41.6 28.6C45.916 28.6 49.374 25.116 49.374 20.8C49.374 16.484 45.916 13 41.6 13C37.284 13 33.8 16.484 33.8 20.8C33.8 25.116 37.284 28.6 41.6 28.6ZM20.8 28.6C25.116 28.6 28.574 25.116 28.574 20.8C28.574 16.484 25.116 13 20.8 13C16.484 13 13 16.484 13 20.8C13 25.116 16.484 28.6 20.8 28.6ZM20.8 33.8C14.742 33.8 2.59998 36.842 2.59998 42.9V49.4H39V42.9C39 36.842 26.858 33.8 20.8 33.8ZM41.6 33.8C40.846 33.8 39.988 33.852 39.078 33.93C42.094 36.114 44.2 39.052 44.2 42.9V49.4H59.8V42.9C59.8 36.842 47.658 33.8 41.6 33.8Z" fill="#2F80ED"/>
</svg>
